<svg clip-rule="evenodd" fill-rule="evenodd" height="6.82666in" image-rendering="optimizeQuality" shape-rendering="geometricPrecision" text-rendering="geometricPrecision" viewBox="0 0 6.82666 6.82666" width="6.82666in" xmlns="http://www.w3.org/2000/svg"><rect fill="#607d8b" height="6.82666" rx=".853335" width="6.82666"/><g fill="#fffffe"><path d="m.80515 3.24604.403299-.0550276.00427559.107969c.00217717.0549409.0117677.174358.0510787.217795.0303583.0335551.0716575.0428386.115673.0428386.0353898 0 .0704094-.00630315.100681-.0254646.0234331-.0148268.0394764-.0333622.0485827-.059626.017748-.0512126.0190709-.137402.0190709-.191169v-1.32638h.432067v1.3131c0 .125169-.0112008.270484-.0623228.386248-.0447677.101358-.116839.180244-.21398.233587-.0995.0546299-.210059.0764528-.322854.0764528-.163087 0-.318362-.043937-.431551-.166445-.116917-.126535-.148705-.30302-.145591-.469827l.00157087-.0840512z"/><path d="m5.78546 2.87096c.049315.0319803.0934094.0717441.130539.120409.0735984.0964646.107287.208717.107287.329756 0 .0965118-.0205866.189433-.0631929.276146-.0383071.0779646-.0899803.148654-.15985.201197-.0679646.0511063-.147831.0837244-.229799.10465-.100346.025622-.208665.032937-.311937.032937h-.778055v-1.97909h.767264c.121413 0 .254374.0131772.366713.0621299.100075.0436063.180087.112378.237618.205091.0543504.0875945.0849016.183835.0849016.287106 0 .0955551-.0267913.184988-.0767795.266378-.0212717.0346417-.046437.0656339-.0747087.0932874zm-.872531-.164768h.287469c.0557362 0 .143205-.00057874.196831-.0166299.0319724-.00957087.0640433-.0250748.084185-.0526732.0206417-.0282717.0267874-.0634488.0267874-.0977835 0-.0367756-.0073937-.0723307-.027185-.103677-.0165472-.0262165-.0387283-.0420551-.0682165-.0513819-.0633819-.0200433-.175594-.0203346-.241874-.0203346h-.257996v.34248zm0 .823118h.345579c.0431772 0 .10085.00085827.143307-.00675984.0349764-.00627953.0713819-.0169764.101803-.0358189.0242362-.0150039.0419764-.0371772.0554134-.0620236.0172913-.0319803.0234724-.0675157.0234724-.103583 0-.0426378-.00919685-.0823661-.0336181-.117654-.0228346-.0330039-.0536811-.0534921-.0917087-.0659094-.0668031-.0218031-.160472-.024622-.230217-.024622h-.314031v.41637z"/><path d="m2.66558 2.0901c.249343-.153244.54685-.200807.831488-.13287.282862.0675157.521795.245661.679.489169.00476772.00738583.00179921.00251969.00638583.0103937.145768.250157.197067.543433.129606.826071-.0675118.282843-.245685.521724-.48913.678972-.00748031.00483465-.0026063.00185039-.0104409.00641732-.250161.145744-.543433.197063-.826067.129602-.282835-.0675118-.521567-.245787-.678949-.489091-.00487008-.0075315-.00190157-.00269685-.00640945-.0104291-.14589-.250138-.197102-.543469-.129634-.826122.0679646-.284724.244713-.528811.49415-.682114zm.741689.244606c-.184484-.0440315-.37689-.0133819-.538516.0859528-.161535.0992835-.275831.256945-.319846.441354-.0439016.183925-.0135079.375748.0851102.537122l.00099606.00162992c.0988819.161807.256925.27563.441209.319614.183972.0439134.375701.0131732.537217-.0851732l.0016811-.00102362c.161969-.098622.2755-.256917.319465-.441118.0439291-.184047.0128937-.375717-.0852677-.53737l-.00099213-.00163386c-.0984291-.162094-.256917-.275406-.441055-.319354z"/><path d="m3.88516 3.88704c-.0283701-.0461614-.0887992-.0605787-.134957-.0322047-.0461614.0283701-.0605787.0887992-.0322047.134957l.226122.367921c.028374.0461575.0887992.0605787.134961.0322047.0461575-.028374.0605748-.0887992.0322047-.134961z" fill-rule="nonzero"/><path d="m3.85607 4.29665.24289-.14928.051378.0835827-.0513898-.083622c.0461811-.028378.106634-.0139488.135012.0322323.00049606.00080709.00097638.00161417.00144488.00242913l.563827.917374-.0835827.051378.0836181-.0513937c.0283858.0461772.0139567.106626-.0322244.135012-.00079528.00048819-.00159449.0009685-.00240551.00142913l-.24289.149283-.051374-.0835827.0513937.083622c-.0461772.0283819-.10663.0139528-.135012-.0322244-.00049213-.00079921-.0009685-.00159843-.00143307-.00240551l-.563843-.917406.0835827-.051378-.0836181.0513937c-.0283858-.0461772-.0139567-.10663.0322205-.135012.00079921-.00049213.00159843-.0009685.00240551-.00143307z" fill-rule="nonzero"/><path d="m3.80831 4.32601c-.0461614.028374-.0605787.0887992-.0322047.134961.028374.0461575.0887992.0605787.134957.0322047l.336035-.206528c.0461575-.028374.0605787-.0887992.0322047-.134961-.028374-.0461614-.0887992-.0605787-.134961-.0322047z" fill-rule="nonzero"/><path d="m2.5942 2.95654c-.00287402.0227244.0132244.0434803.0359488.0463543.0227244.00287402.0434803-.0132205.0463543-.0359449.0186929-.146642.0905433-.275008.19474-.36676.104087-.0916614.24052-.146646.3885-.146646.0140236 0 .027374.00043307.0400157.00129528.0137244.00092913.0270079.00227953.039815.0040315.0227244.00305118.0436299-.0128976.0466811-.035622.00305118-.0227244-.0128976-.0436299-.035622-.0466811-.0154724-.00211811-.0306024-.0036811-.0453386-.00468504-.0158268-.00107874-.0310236-.00161811-.0455512-.00161811-.168866 0-.32461.0627913-.443476.167465-.118764.104583-.200693.25115-.222067.418811z" fill-rule="nonzero"/></g></svg>